<svg width="1188" height="517" viewBox="0 0 1188 517" fill="none" xmlns="http://www.w3.org/2000/svg">
<path d="M0 4.66382C84.8071 4.66382 153.53 117.36 153.53 256.435C153.53 395.51 84.8071 508.207 0 508.207" stroke="#122AFF" stroke-width="4"/>
<path d="M595.377 332.371C534.843 352.155 457.959 364.296 377.976 364.296C173.27 364.296 7.16479 287.943 7.16479 193.712C7.16479 99.481 173.27 23.1289 377.976 23.1289C467.756 23.1289 531.189 31.1198 595.377 55.5934" stroke="#122AFF" stroke-width="4"/>
<path d="M595.377 458.064C531.187 482.684 468.483 489.59 378.412 489.59C173.705 489.59 7.59987 413.091 7.59987 319.007C7.59987 224.92 173.705 148.276 378.412 148.276C458.394 148.276 534.574 159.56 595.108 179.344" stroke="#122AFF" stroke-width="4"/>
<path d="M1187.3 508.207C1102.49 508.207 1033.77 395.51 1033.77 256.435C1033.77 117.36 1102.49 4.66382 1187.3 4.66382" stroke="#122AFF" stroke-width="4"/>
<path d="M594.672 180.083C655.208 160.299 729.339 148.575 809.323 148.575C1014.03 148.575 1180.13 224.927 1180.13 319.159C1180.13 413.389 1014.18 489.742 809.323 489.742C719.543 489.742 659.568 482.538 595.377 458.064" stroke="#122AFF" stroke-width="4"/>
<path d="M595.38 55.5937C659.568 30.9736 719.106 22.689 809.176 22.689C1013.88 22.689 1179.99 99.0411 1179.99 193.272C1179.99 287.503 1014.03 363.855 809.176 363.855C729.195 363.855 655.914 352.155 595.38 332.371" stroke="#122AFF" stroke-width="4"/>
<path d="M600.96 510.111C787.988 510.111 939.605 396.538 939.605 256.435C939.605 116.333 787.988 2.75842 600.96 2.75842C413.934 2.75842 262.318 116.333 262.318 256.435C262.318 396.538 413.934 510.111 600.96 510.111Z" stroke="#122AFF" stroke-width="4"/>
<path d="M595.403 2.75842V510.111" stroke="#122AFF" stroke-width="4"/>
</svg>
