<svg width="97" height="17" viewBox="0 0 97 17" fill="none" xmlns="http://www.w3.org/2000/svg">
<path d="M4.982 16.44H0.56L8.48 0.819999H12.902L4.982 16.44Z" fill="#122AFF"/>
<path d="M17.5368 16H13.4008V1.26H17.5368V16ZM26.0508 16H14.5448V12.282H26.0508V16ZM37.4688 16H27.5908V1.26H36.9628C38.0334 1.26 38.9208 1.39933 39.6248 1.678C40.3288 1.942 40.8568 2.338 41.2088 2.866C41.5608 3.394 41.7368 4.04667 41.7368 4.824C41.7368 5.76267 41.4581 6.54 40.9008 7.156C40.3581 7.772 39.4121 8.10933 38.0628 8.168V8.388C39.5441 8.44667 40.6368 8.79133 41.3408 9.422C42.0594 10.0527 42.4188 10.8813 42.4188 11.908C42.4188 12.7293 42.2501 13.448 41.9128 14.064C41.5754 14.68 41.0401 15.1567 40.3068 15.494C39.5881 15.8313 38.6421 16 37.4688 16ZM31.7048 10.236V12.282H36.9408C37.4394 12.282 37.7768 12.216 37.9528 12.084C38.1434 11.9373 38.2388 11.6587 38.2388 11.248C38.2388 10.8373 38.1508 10.566 37.9748 10.434C37.7988 10.302 37.4541 10.236 36.9408 10.236H31.7048ZM31.7048 4.978V6.848H36.5228C36.9481 6.848 37.2341 6.782 37.3808 6.65C37.5274 6.50333 37.6008 6.26133 37.6008 5.924C37.6008 5.58667 37.5054 5.34467 37.3148 5.198C37.1388 5.05133 36.8381 4.978 36.4128 4.978H31.7048ZM47.4979 16H42.8559L49.2139 1.26H55.1319L61.5119 16H56.7599L53.2619 7.486L52.2939 5H52.0079L51.0619 7.486L47.4979 16ZM57.4859 13.272H46.6179V9.554H57.4859V13.272ZM66.5306 16H62.3946V1.26H70.9966C72.3019 1.26 73.3946 1.436 74.2746 1.788C75.1546 2.14 75.8146 2.65333 76.2546 3.328C76.7093 3.988 76.9366 4.802 76.9366 5.77C76.9366 6.54733 76.7973 7.222 76.5186 7.794C76.2546 8.35133 75.8293 8.806 75.2426 9.158C74.6559 9.49533 73.8933 9.72267 72.9546 9.84V10.06C73.7173 10.2507 74.2599 10.5367 74.5826 10.918C74.9199 11.2847 75.2279 11.7467 75.5066 12.304L77.3326 16H72.5586L70.7986 12.392C70.6226 12.0253 70.4393 11.7393 70.2486 11.534C70.0579 11.3287 69.8086 11.1893 69.5006 11.116C69.1926 11.028 68.7673 10.984 68.2246 10.984H66.5306V16ZM66.5306 4.978V7.904H70.9526C71.5539 7.904 71.9793 7.816 72.2286 7.64C72.4779 7.464 72.6026 7.06067 72.6026 6.43C72.6026 5.84333 72.4779 5.45467 72.2286 5.264C71.9793 5.07333 71.5539 4.978 70.9526 4.978H66.5306ZM82.1943 16H77.5523L83.9103 1.26H89.8283L96.2083 16H91.4563L87.9583 7.486L86.9903 5H86.7043L85.7583 7.486L82.1943 16ZM92.1823 13.272H81.3143V9.554H92.1823V13.272Z" fill="#F4F8FA"/>
</svg>
